<mxfile host="app.diagrams.net" agent="Mozilla/5.0 (Windows NT 10.0; Win64; x64) AppleWebKit/537.36 (KHTML, like Gecko) Chrome/139.0.0.0 Safari/537.36" version="28.1.0">
  <diagram name="Page-1" id="PSrpcghZxuBm2tanDxEg">
    <mxGraphModel grid="1" page="1" gridSize="10" guides="1" tooltips="1" connect="1" arrows="1" fold="1" pageScale="1" pageWidth="850" pageHeight="1100" math="0" shadow="0">
      <root>
        <mxCell id="0" />
        <mxCell id="1" parent="0" />
        <mxCell id="fR6h9TllRUfnrKioVvOp-7" style="rounded=0;orthogonalLoop=1;jettySize=auto;html=1;entryX=0.5;entryY=1;entryDx=0;entryDy=0;endArrow=none;endFill=0;exitX=0.5;exitY=0;exitDx=0;exitDy=0;" edge="1" parent="1" source="fR6h9TllRUfnrKioVvOp-1" target="fR6h9TllRUfnrKioVvOp-2">
          <mxGeometry relative="1" as="geometry">
            <mxPoint x="55" y="256" as="sourcePoint" />
          </mxGeometry>
        </mxCell>
        <mxCell id="fR6h9TllRUfnrKioVvOp-1" value="Customer" style="whiteSpace=wrap;html=1;align=center;" vertex="1" parent="1">
          <mxGeometry x="125" y="236" width="120" height="40" as="geometry" />
        </mxCell>
        <mxCell id="fR6h9TllRUfnrKioVvOp-2" value="Cus_ID" style="ellipse;whiteSpace=wrap;html=1;align=center;fontStyle=4;" vertex="1" parent="1">
          <mxGeometry x="145" y="106" width="80" height="40" as="geometry" />
        </mxCell>
        <mxCell id="fR6h9TllRUfnrKioVvOp-8" style="rounded=0;orthogonalLoop=1;jettySize=auto;html=1;exitX=0.5;exitY=1;exitDx=0;exitDy=0;entryX=0.25;entryY=0;entryDx=0;entryDy=0;endArrow=none;endFill=0;" edge="1" parent="1" source="fR6h9TllRUfnrKioVvOp-3" target="fR6h9TllRUfnrKioVvOp-1">
          <mxGeometry relative="1" as="geometry" />
        </mxCell>
        <mxCell id="fR6h9TllRUfnrKioVvOp-3" value="Age" style="ellipse;whiteSpace=wrap;html=1;align=center;" vertex="1" parent="1">
          <mxGeometry x="95" y="156" width="80" height="40" as="geometry" />
        </mxCell>
        <mxCell id="fR6h9TllRUfnrKioVvOp-9" style="rounded=0;orthogonalLoop=1;jettySize=auto;html=1;exitX=0.5;exitY=1;exitDx=0;exitDy=0;entryX=0;entryY=0;entryDx=0;entryDy=0;endArrow=none;endFill=0;" edge="1" parent="1" source="fR6h9TllRUfnrKioVvOp-4" target="fR6h9TllRUfnrKioVvOp-1">
          <mxGeometry relative="1" as="geometry" />
        </mxCell>
        <mxCell id="fR6h9TllRUfnrKioVvOp-4" value="Sex" style="ellipse;whiteSpace=wrap;html=1;align=center;" vertex="1" parent="1">
          <mxGeometry x="5" y="156" width="80" height="40" as="geometry" />
        </mxCell>
        <mxCell id="fR6h9TllRUfnrKioVvOp-10" style="rounded=0;orthogonalLoop=1;jettySize=auto;html=1;exitX=0.5;exitY=1;exitDx=0;exitDy=0;entryX=0.75;entryY=0;entryDx=0;entryDy=0;endArrow=none;endFill=0;" edge="1" parent="1" source="fR6h9TllRUfnrKioVvOp-5" target="fR6h9TllRUfnrKioVvOp-1">
          <mxGeometry relative="1" as="geometry" />
        </mxCell>
        <mxCell id="fR6h9TllRUfnrKioVvOp-5" value="Phone" style="ellipse;shape=doubleEllipse;margin=3;whiteSpace=wrap;html=1;align=center;" vertex="1" parent="1">
          <mxGeometry x="195" y="156" width="80" height="40" as="geometry" />
        </mxCell>
        <mxCell id="fR6h9TllRUfnrKioVvOp-11" style="rounded=0;orthogonalLoop=1;jettySize=auto;html=1;exitX=0.5;exitY=1;exitDx=0;exitDy=0;entryX=1;entryY=0;entryDx=0;entryDy=0;endArrow=none;endFill=0;" edge="1" parent="1" source="fR6h9TllRUfnrKioVvOp-6" target="fR6h9TllRUfnrKioVvOp-1">
          <mxGeometry relative="1" as="geometry" />
        </mxCell>
        <mxCell id="HZtSc_NJiaiMesVlkhWD-2" style="rounded=0;orthogonalLoop=1;jettySize=auto;html=1;exitX=0;exitY=0.5;exitDx=0;exitDy=0;entryX=0.5;entryY=1;entryDx=0;entryDy=0;endArrow=none;endFill=0;" edge="1" parent="1" source="fR6h9TllRUfnrKioVvOp-6" target="HZtSc_NJiaiMesVlkhWD-1">
          <mxGeometry relative="1" as="geometry" />
        </mxCell>
        <mxCell id="fR6h9TllRUfnrKioVvOp-6" value="Location" style="ellipse;shape=doubleEllipse;margin=3;whiteSpace=wrap;html=1;align=center;" vertex="1" parent="1">
          <mxGeometry x="285" y="156" width="80" height="40" as="geometry" />
        </mxCell>
        <mxCell id="fR6h9TllRUfnrKioVvOp-14" style="rounded=0;orthogonalLoop=1;jettySize=auto;html=1;exitX=1;exitY=0.5;exitDx=0;exitDy=0;entryX=0;entryY=0.5;entryDx=0;entryDy=0;endArrow=none;endFill=0;" edge="1" parent="1" source="fR6h9TllRUfnrKioVvOp-13" target="fR6h9TllRUfnrKioVvOp-1">
          <mxGeometry relative="1" as="geometry" />
        </mxCell>
        <mxCell id="fR6h9TllRUfnrKioVvOp-13" value="Name" style="ellipse;whiteSpace=wrap;html=1;align=center;" vertex="1" parent="1">
          <mxGeometry x="5" y="236" width="80" height="40" as="geometry" />
        </mxCell>
        <mxCell id="fR6h9TllRUfnrKioVvOp-15" style="rounded=0;orthogonalLoop=1;jettySize=auto;html=1;entryX=0.5;entryY=1;entryDx=0;entryDy=0;endArrow=none;endFill=0;exitX=0.5;exitY=0;exitDx=0;exitDy=0;" edge="1" parent="1" source="fR6h9TllRUfnrKioVvOp-16" target="fR6h9TllRUfnrKioVvOp-17">
          <mxGeometry relative="1" as="geometry">
            <mxPoint x="465" y="256" as="sourcePoint" />
          </mxGeometry>
        </mxCell>
        <mxCell id="fR6h9TllRUfnrKioVvOp-16" value="Product" style="whiteSpace=wrap;html=1;align=center;" vertex="1" parent="1">
          <mxGeometry x="535" y="236" width="120" height="40" as="geometry" />
        </mxCell>
        <mxCell id="fR6h9TllRUfnrKioVvOp-17" value="Pro_ID" style="ellipse;whiteSpace=wrap;html=1;align=center;fontStyle=4;" vertex="1" parent="1">
          <mxGeometry x="555" y="106" width="80" height="40" as="geometry" />
        </mxCell>
        <mxCell id="fR6h9TllRUfnrKioVvOp-18" style="rounded=0;orthogonalLoop=1;jettySize=auto;html=1;exitX=0.5;exitY=1;exitDx=0;exitDy=0;entryX=0.25;entryY=0;entryDx=0;entryDy=0;endArrow=none;endFill=0;" edge="1" parent="1" source="fR6h9TllRUfnrKioVvOp-19" target="fR6h9TllRUfnrKioVvOp-16">
          <mxGeometry relative="1" as="geometry" />
        </mxCell>
        <mxCell id="fR6h9TllRUfnrKioVvOp-19" value="Price" style="ellipse;whiteSpace=wrap;html=1;align=center;" vertex="1" parent="1">
          <mxGeometry x="505" y="156" width="80" height="40" as="geometry" />
        </mxCell>
        <mxCell id="fR6h9TllRUfnrKioVvOp-20" style="rounded=0;orthogonalLoop=1;jettySize=auto;html=1;exitX=0.5;exitY=1;exitDx=0;exitDy=0;entryX=0;entryY=0;entryDx=0;entryDy=0;endArrow=none;endFill=0;" edge="1" parent="1" source="fR6h9TllRUfnrKioVvOp-21" target="fR6h9TllRUfnrKioVvOp-16">
          <mxGeometry relative="1" as="geometry" />
        </mxCell>
        <mxCell id="fR6h9TllRUfnrKioVvOp-21" value="Describe" style="ellipse;whiteSpace=wrap;html=1;align=center;" vertex="1" parent="1">
          <mxGeometry x="415" y="156" width="80" height="40" as="geometry" />
        </mxCell>
        <mxCell id="fR6h9TllRUfnrKioVvOp-22" style="rounded=0;orthogonalLoop=1;jettySize=auto;html=1;exitX=0.5;exitY=1;exitDx=0;exitDy=0;entryX=0.75;entryY=0;entryDx=0;entryDy=0;endArrow=none;endFill=0;" edge="1" parent="1" source="fR6h9TllRUfnrKioVvOp-28" target="fR6h9TllRUfnrKioVvOp-16">
          <mxGeometry relative="1" as="geometry">
            <mxPoint x="645" y="196" as="sourcePoint" />
          </mxGeometry>
        </mxCell>
        <mxCell id="fR6h9TllRUfnrKioVvOp-24" style="rounded=0;orthogonalLoop=1;jettySize=auto;html=1;exitX=0.5;exitY=1;exitDx=0;exitDy=0;entryX=1;entryY=0;entryDx=0;entryDy=0;endArrow=none;endFill=0;" edge="1" parent="1" source="0xRxQ8C-j_CId4-q9qZo-1" target="fR6h9TllRUfnrKioVvOp-16">
          <mxGeometry relative="1" as="geometry">
            <mxPoint x="735" y="196" as="sourcePoint" />
          </mxGeometry>
        </mxCell>
        <mxCell id="fR6h9TllRUfnrKioVvOp-26" style="rounded=0;orthogonalLoop=1;jettySize=auto;html=1;exitX=1;exitY=0.5;exitDx=0;exitDy=0;entryX=0;entryY=0.5;entryDx=0;entryDy=0;endArrow=none;endFill=0;" edge="1" parent="1" source="fR6h9TllRUfnrKioVvOp-27" target="fR6h9TllRUfnrKioVvOp-16">
          <mxGeometry relative="1" as="geometry" />
        </mxCell>
        <mxCell id="fR6h9TllRUfnrKioVvOp-27" value="Name" style="ellipse;whiteSpace=wrap;html=1;align=center;" vertex="1" parent="1">
          <mxGeometry x="415" y="236" width="80" height="40" as="geometry" />
        </mxCell>
        <mxCell id="fR6h9TllRUfnrKioVvOp-28" value="Avl_quantity" style="ellipse;whiteSpace=wrap;html=1;align=center;" vertex="1" parent="1">
          <mxGeometry x="605" y="156" width="80" height="40" as="geometry" />
        </mxCell>
        <mxCell id="fR6h9TllRUfnrKioVvOp-30" style="rounded=0;orthogonalLoop=1;jettySize=auto;html=1;entryX=0;entryY=0.5;entryDx=0;entryDy=0;endArrow=none;endFill=0;exitX=1;exitY=0.75;exitDx=0;exitDy=0;" edge="1" parent="1" source="fR6h9TllRUfnrKioVvOp-58" target="fR6h9TllRUfnrKioVvOp-32">
          <mxGeometry relative="1" as="geometry">
            <mxPoint x="255" y="466" as="sourcePoint" />
          </mxGeometry>
        </mxCell>
        <mxCell id="fR6h9TllRUfnrKioVvOp-32" value="Order_ID" style="ellipse;whiteSpace=wrap;html=1;align=center;fontStyle=4;" vertex="1" parent="1">
          <mxGeometry x="365" y="486" width="80" height="40" as="geometry" />
        </mxCell>
        <mxCell id="fR6h9TllRUfnrKioVvOp-44" style="rounded=0;orthogonalLoop=1;jettySize=auto;html=1;exitX=1;exitY=0.5;exitDx=0;exitDy=0;endArrow=none;endFill=0;entryX=0;entryY=0.25;entryDx=0;entryDy=0;" edge="1" parent="1" source="fR6h9TllRUfnrKioVvOp-43" target="fR6h9TllRUfnrKioVvOp-58">
          <mxGeometry relative="1" as="geometry">
            <mxPoint x="235" y="456" as="targetPoint" />
          </mxGeometry>
        </mxCell>
        <mxCell id="fR6h9TllRUfnrKioVvOp-43" value="Date" style="ellipse;whiteSpace=wrap;html=1;align=center;" vertex="1" parent="1">
          <mxGeometry x="85" y="426" width="80" height="40" as="geometry" />
        </mxCell>
        <mxCell id="fR6h9TllRUfnrKioVvOp-45" style="rounded=0;orthogonalLoop=1;jettySize=auto;html=1;exitX=0;exitY=0.5;exitDx=0;exitDy=0;entryX=1;entryY=0.25;entryDx=0;entryDy=0;endArrow=none;endFill=0;" edge="1" parent="1" source="fR6h9TllRUfnrKioVvOp-46" target="fR6h9TllRUfnrKioVvOp-58">
          <mxGeometry relative="1" as="geometry">
            <mxPoint x="285" y="466" as="targetPoint" />
          </mxGeometry>
        </mxCell>
        <mxCell id="fR6h9TllRUfnrKioVvOp-46" value="Total_price" style="ellipse;whiteSpace=wrap;html=1;align=center;" vertex="1" parent="1">
          <mxGeometry x="365" y="426" width="80" height="40" as="geometry" />
        </mxCell>
        <mxCell id="fR6h9TllRUfnrKioVvOp-58" value="Order" style="shape=ext;margin=3;double=1;whiteSpace=wrap;html=1;align=center;" vertex="1" parent="1">
          <mxGeometry x="205" y="456" width="120" height="40" as="geometry" />
        </mxCell>
        <mxCell id="fR6h9TllRUfnrKioVvOp-61" style="rounded=0;orthogonalLoop=1;jettySize=auto;html=1;exitX=0.5;exitY=0;exitDx=0;exitDy=0;entryX=0.25;entryY=1;entryDx=0;entryDy=0;endArrow=none;endFill=0;" edge="1" parent="1" source="fR6h9TllRUfnrKioVvOp-62" target="fR6h9TllRUfnrKioVvOp-67">
          <mxGeometry relative="1" as="geometry">
            <mxPoint x="465" y="706" as="targetPoint" />
          </mxGeometry>
        </mxCell>
        <mxCell id="fR6h9TllRUfnrKioVvOp-62" value="Quantity" style="ellipse;whiteSpace=wrap;html=1;align=center;" vertex="1" parent="1">
          <mxGeometry x="405" y="766" width="80" height="40" as="geometry" />
        </mxCell>
        <mxCell id="fR6h9TllRUfnrKioVvOp-67" value="Order_Details" style="shape=ext;margin=3;double=1;whiteSpace=wrap;html=1;align=center;" vertex="1" parent="1">
          <mxGeometry x="445" y="696" width="120" height="40" as="geometry" />
        </mxCell>
        <mxCell id="fR6h9TllRUfnrKioVvOp-68" style="rounded=0;orthogonalLoop=1;jettySize=auto;html=1;exitX=0;exitY=0.5;exitDx=0;exitDy=0;endArrow=none;endFill=0;entryX=1;entryY=0.5;entryDx=0;entryDy=0;" edge="1" parent="1" source="fR6h9TllRUfnrKioVvOp-69" target="fR6h9TllRUfnrKioVvOp-1">
          <mxGeometry relative="1" as="geometry">
            <mxPoint x="335" y="346" as="targetPoint" />
            <mxPoint x="365" y="336" as="sourcePoint" />
          </mxGeometry>
        </mxCell>
        <mxCell id="fR6h9TllRUfnrKioVvOp-69" value="Email" style="ellipse;whiteSpace=wrap;html=1;align=center;" vertex="1" parent="1">
          <mxGeometry x="285" y="236" width="80" height="40" as="geometry" />
        </mxCell>
        <mxCell id="fR6h9TllRUfnrKioVvOp-70" style="rounded=0;orthogonalLoop=1;jettySize=auto;html=1;exitX=1;exitY=0.5;exitDx=0;exitDy=0;entryX=0;entryY=0.75;entryDx=0;entryDy=0;endArrow=none;endFill=0;" edge="1" parent="1" source="fR6h9TllRUfnrKioVvOp-71" target="fR6h9TllRUfnrKioVvOp-58">
          <mxGeometry relative="1" as="geometry">
            <mxPoint x="185" y="476" as="targetPoint" />
          </mxGeometry>
        </mxCell>
        <mxCell id="fR6h9TllRUfnrKioVvOp-71" value="Status" style="ellipse;whiteSpace=wrap;html=1;align=center;" vertex="1" parent="1">
          <mxGeometry x="85" y="486" width="80" height="40" as="geometry" />
        </mxCell>
        <mxCell id="fR6h9TllRUfnrKioVvOp-72" style="rounded=0;orthogonalLoop=1;jettySize=auto;html=1;entryX=0.5;entryY=1;entryDx=0;entryDy=0;endArrow=none;endFill=0;exitX=0.25;exitY=1;exitDx=0;exitDy=0;" edge="1" parent="1" source="fR6h9TllRUfnrKioVvOp-78" target="fR6h9TllRUfnrKioVvOp-73">
          <mxGeometry relative="1" as="geometry">
            <mxPoint x="175" y="736" as="sourcePoint" />
          </mxGeometry>
        </mxCell>
        <mxCell id="fR6h9TllRUfnrKioVvOp-73" value="Payment_ID" style="ellipse;whiteSpace=wrap;html=1;align=center;fontStyle=4;" vertex="1" parent="1">
          <mxGeometry x="35" y="806" width="80" height="40" as="geometry" />
        </mxCell>
        <mxCell id="fR6h9TllRUfnrKioVvOp-74" style="rounded=0;orthogonalLoop=1;jettySize=auto;html=1;exitX=1;exitY=0.5;exitDx=0;exitDy=0;entryX=0;entryY=1;entryDx=0;entryDy=0;endArrow=none;endFill=0;" edge="1" parent="1" source="fR6h9TllRUfnrKioVvOp-75" target="fR6h9TllRUfnrKioVvOp-78">
          <mxGeometry relative="1" as="geometry">
            <mxPoint x="145" y="736" as="targetPoint" />
          </mxGeometry>
        </mxCell>
        <mxCell id="fR6h9TllRUfnrKioVvOp-75" value="Date" style="ellipse;whiteSpace=wrap;html=1;align=center;" vertex="1" parent="1">
          <mxGeometry x="15" y="756" width="80" height="40" as="geometry" />
        </mxCell>
        <mxCell id="fR6h9TllRUfnrKioVvOp-78" value="Payment" style="shape=ext;margin=3;double=1;whiteSpace=wrap;html=1;align=center;" vertex="1" parent="1">
          <mxGeometry x="125" y="726" width="120" height="40" as="geometry" />
        </mxCell>
        <mxCell id="fR6h9TllRUfnrKioVvOp-81" style="rounded=0;orthogonalLoop=1;jettySize=auto;html=1;exitX=0;exitY=0.5;exitDx=0;exitDy=0;endArrow=none;endFill=0;entryX=0.75;entryY=1;entryDx=0;entryDy=0;" edge="1" parent="1" source="fR6h9TllRUfnrKioVvOp-82" target="fR6h9TllRUfnrKioVvOp-78">
          <mxGeometry relative="1" as="geometry">
            <mxPoint x="245" y="746" as="targetPoint" />
            <mxPoint x="285" y="736" as="sourcePoint" />
          </mxGeometry>
        </mxCell>
        <mxCell id="fR6h9TllRUfnrKioVvOp-82" value="Pay_method" style="ellipse;whiteSpace=wrap;html=1;align=center;" vertex="1" parent="1">
          <mxGeometry x="185" y="826" width="80" height="40" as="geometry" />
        </mxCell>
        <mxCell id="fR6h9TllRUfnrKioVvOp-85" style="rounded=0;orthogonalLoop=1;jettySize=auto;html=1;entryX=0.5;entryY=1;entryDx=0;entryDy=0;endArrow=none;endFill=0;exitX=0.5;exitY=1;exitDx=0;exitDy=0;" edge="1" parent="1" source="fR6h9TllRUfnrKioVvOp-97" target="fR6h9TllRUfnrKioVvOp-87">
          <mxGeometry relative="1" as="geometry">
            <mxPoint x="485" y="916" as="sourcePoint" />
          </mxGeometry>
        </mxCell>
        <mxCell id="fR6h9TllRUfnrKioVvOp-87" value="Shipping_ID" style="ellipse;whiteSpace=wrap;html=1;align=center;fontStyle=4;" vertex="1" parent="1">
          <mxGeometry x="445" y="1036" width="80" height="40" as="geometry" />
        </mxCell>
        <mxCell id="fR6h9TllRUfnrKioVvOp-88" style="rounded=0;orthogonalLoop=1;jettySize=auto;html=1;exitX=0.5;exitY=1;exitDx=0;exitDy=0;entryX=0.75;entryY=1;entryDx=0;entryDy=0;endArrow=none;endFill=0;" edge="1" parent="1" source="fR6h9TllRUfnrKioVvOp-89" target="fR6h9TllRUfnrKioVvOp-97">
          <mxGeometry relative="1" as="geometry">
            <mxPoint x="455" y="916" as="targetPoint" />
          </mxGeometry>
        </mxCell>
        <mxCell id="fR6h9TllRUfnrKioVvOp-89" value="sh_cost" style="ellipse;whiteSpace=wrap;html=1;align=center;" vertex="1" parent="1">
          <mxGeometry x="525" y="1006" width="80" height="40" as="geometry" />
        </mxCell>
        <mxCell id="fR6h9TllRUfnrKioVvOp-90" style="rounded=0;orthogonalLoop=1;jettySize=auto;html=1;exitX=0.5;exitY=1;exitDx=0;exitDy=0;entryX=0.25;entryY=1;entryDx=0;entryDy=0;endArrow=none;endFill=0;" edge="1" parent="1" source="fR6h9TllRUfnrKioVvOp-91" target="fR6h9TllRUfnrKioVvOp-97">
          <mxGeometry relative="1" as="geometry">
            <mxPoint x="425" y="916" as="targetPoint" />
          </mxGeometry>
        </mxCell>
        <mxCell id="fR6h9TllRUfnrKioVvOp-91" value="Delv_date" style="ellipse;whiteSpace=wrap;html=1;align=center;" vertex="1" parent="1">
          <mxGeometry x="365" y="1006" width="80" height="40" as="geometry" />
        </mxCell>
        <mxCell id="fR6h9TllRUfnrKioVvOp-94" style="rounded=0;orthogonalLoop=1;jettySize=auto;html=1;exitX=1;exitY=0.5;exitDx=0;exitDy=0;entryX=0;entryY=1;entryDx=0;entryDy=0;endArrow=none;endFill=0;" edge="1" parent="1" source="fR6h9TllRUfnrKioVvOp-95" target="fR6h9TllRUfnrKioVvOp-97">
          <mxGeometry relative="1" as="geometry">
            <mxPoint x="425" y="936" as="targetPoint" />
          </mxGeometry>
        </mxCell>
        <mxCell id="fR6h9TllRUfnrKioVvOp-95" value="Will_shipping" style="ellipse;whiteSpace=wrap;html=1;align=center;" vertex="1" parent="1">
          <mxGeometry x="325" y="956" width="80" height="40" as="geometry" />
        </mxCell>
        <mxCell id="fR6h9TllRUfnrKioVvOp-97" value="Shipping" style="shape=ext;margin=3;double=1;whiteSpace=wrap;html=1;align=center;" vertex="1" parent="1">
          <mxGeometry x="426" y="916" width="120" height="40" as="geometry" />
        </mxCell>
        <mxCell id="fR6h9TllRUfnrKioVvOp-98" style="rounded=0;orthogonalLoop=1;jettySize=auto;html=1;entryX=0.5;entryY=1;entryDx=0;entryDy=0;endArrow=none;endFill=0;exitX=0.5;exitY=0;exitDx=0;exitDy=0;" edge="1" parent="1" source="fR6h9TllRUfnrKioVvOp-104" target="fR6h9TllRUfnrKioVvOp-99">
          <mxGeometry relative="1" as="geometry">
            <mxPoint x="655" y="436" as="sourcePoint" />
          </mxGeometry>
        </mxCell>
        <mxCell id="fR6h9TllRUfnrKioVvOp-99" value="Rev_ID" style="ellipse;whiteSpace=wrap;html=1;align=center;fontStyle=4;" vertex="1" parent="1">
          <mxGeometry x="625" y="536" width="80" height="40" as="geometry" />
        </mxCell>
        <mxCell id="fR6h9TllRUfnrKioVvOp-100" style="rounded=0;orthogonalLoop=1;jettySize=auto;html=1;exitX=0.5;exitY=1;exitDx=0;exitDy=0;entryX=0.25;entryY=1;entryDx=0;entryDy=0;endArrow=none;endFill=0;" edge="1" parent="1" source="fR6h9TllRUfnrKioVvOp-101" target="fR6h9TllRUfnrKioVvOp-104">
          <mxGeometry relative="1" as="geometry">
            <mxPoint x="625" y="436" as="targetPoint" />
          </mxGeometry>
        </mxCell>
        <mxCell id="fR6h9TllRUfnrKioVvOp-101" value="Rating" style="ellipse;whiteSpace=wrap;html=1;align=center;" vertex="1" parent="1">
          <mxGeometry x="555" y="496" width="80" height="40" as="geometry" />
        </mxCell>
        <mxCell id="fR6h9TllRUfnrKioVvOp-102" style="rounded=0;orthogonalLoop=1;jettySize=auto;html=1;exitX=0.5;exitY=1;exitDx=0;exitDy=0;entryX=0.75;entryY=1;entryDx=0;entryDy=0;endArrow=none;endFill=0;" edge="1" parent="1" source="fR6h9TllRUfnrKioVvOp-103" target="fR6h9TllRUfnrKioVvOp-104">
          <mxGeometry relative="1" as="geometry">
            <mxPoint x="685" y="436" as="targetPoint" />
          </mxGeometry>
        </mxCell>
        <mxCell id="fR6h9TllRUfnrKioVvOp-103" value="Comment" style="ellipse;whiteSpace=wrap;html=1;align=center;" vertex="1" parent="1">
          <mxGeometry x="705" y="496" width="80" height="40" as="geometry" />
        </mxCell>
        <mxCell id="fR6h9TllRUfnrKioVvOp-104" value="Revew" style="shape=ext;margin=3;double=1;whiteSpace=wrap;html=1;align=center;" vertex="1" parent="1">
          <mxGeometry x="605" y="426" width="120" height="40" as="geometry" />
        </mxCell>
        <mxCell id="fR6h9TllRUfnrKioVvOp-107" style="rounded=0;orthogonalLoop=1;jettySize=auto;html=1;exitX=0;exitY=0.5;exitDx=0;exitDy=0;entryX=1;entryY=0.5;entryDx=0;entryDy=0;endArrow=none;endFill=0;" edge="1" parent="1" source="fR6h9TllRUfnrKioVvOp-108" target="fR6h9TllRUfnrKioVvOp-104">
          <mxGeometry relative="1" as="geometry">
            <mxPoint x="625" y="426" as="targetPoint" />
            <mxPoint x="765" y="436" as="sourcePoint" />
          </mxGeometry>
        </mxCell>
        <mxCell id="fR6h9TllRUfnrKioVvOp-108" value="Rev_date" style="ellipse;whiteSpace=wrap;html=1;align=center;" vertex="1" parent="1">
          <mxGeometry x="765" y="426" width="80" height="40" as="geometry" />
        </mxCell>
        <mxCell id="fR6h9TllRUfnrKioVvOp-110" style="edgeStyle=orthogonalEdgeStyle;rounded=0;orthogonalLoop=1;jettySize=auto;html=1;exitX=0.5;exitY=1;exitDx=0;exitDy=0;entryX=0.25;entryY=0;entryDx=0;entryDy=0;endArrow=ERzeroToMany;endFill=0;" edge="1" parent="1" source="fR6h9TllRUfnrKioVvOp-109" target="fR6h9TllRUfnrKioVvOp-58">
          <mxGeometry relative="1" as="geometry" />
        </mxCell>
        <mxCell id="fR6h9TllRUfnrKioVvOp-111" style="edgeStyle=orthogonalEdgeStyle;rounded=0;orthogonalLoop=1;jettySize=auto;html=1;exitX=0.5;exitY=0;exitDx=0;exitDy=0;entryX=0.5;entryY=1;entryDx=0;entryDy=0;endArrow=ERmandOne;endFill=0;" edge="1" parent="1" source="fR6h9TllRUfnrKioVvOp-109" target="fR6h9TllRUfnrKioVvOp-1">
          <mxGeometry relative="1" as="geometry" />
        </mxCell>
        <mxCell id="fR6h9TllRUfnrKioVvOp-109" value="Do" style="shape=rhombus;double=1;perimeter=rhombusPerimeter;whiteSpace=wrap;html=1;align=center;" vertex="1" parent="1">
          <mxGeometry x="195" y="326" width="80" height="60" as="geometry" />
        </mxCell>
        <mxCell id="fR6h9TllRUfnrKioVvOp-127" style="edgeStyle=orthogonalEdgeStyle;rounded=0;orthogonalLoop=1;jettySize=auto;html=1;exitX=0.5;exitY=0;exitDx=0;exitDy=0;entryX=0.75;entryY=1;entryDx=0;entryDy=0;endArrow=ERmandOne;endFill=0;" edge="1" parent="1" source="fR6h9TllRUfnrKioVvOp-126" target="fR6h9TllRUfnrKioVvOp-58">
          <mxGeometry relative="1" as="geometry">
            <Array as="points">
              <mxPoint x="375" y="546" />
              <mxPoint x="295" y="546" />
            </Array>
          </mxGeometry>
        </mxCell>
        <mxCell id="fR6h9TllRUfnrKioVvOp-128" style="edgeStyle=orthogonalEdgeStyle;rounded=0;orthogonalLoop=1;jettySize=auto;html=1;exitX=0.5;exitY=1;exitDx=0;exitDy=0;endArrow=ERmandOne;endFill=0;entryX=0.25;entryY=0;entryDx=0;entryDy=0;" edge="1" parent="1" target="fR6h9TllRUfnrKioVvOp-67">
          <mxGeometry relative="1" as="geometry">
            <mxPoint x="375" y="596" as="sourcePoint" />
            <mxPoint x="505" y="666" as="targetPoint" />
            <Array as="points">
              <mxPoint x="375" y="626" />
              <mxPoint x="475" y="626" />
            </Array>
          </mxGeometry>
        </mxCell>
        <mxCell id="fR6h9TllRUfnrKioVvOp-126" value="Details" style="shape=rhombus;double=1;perimeter=rhombusPerimeter;whiteSpace=wrap;html=1;align=center;" vertex="1" parent="1">
          <mxGeometry x="335" y="546" width="80" height="60" as="geometry" />
        </mxCell>
        <mxCell id="fR6h9TllRUfnrKioVvOp-136" style="edgeStyle=orthogonalEdgeStyle;rounded=0;orthogonalLoop=1;jettySize=auto;html=1;exitX=0.5;exitY=0;exitDx=0;exitDy=0;entryX=0.25;entryY=1;entryDx=0;entryDy=0;endArrow=ERmandOne;endFill=0;" edge="1" parent="1" source="fR6h9TllRUfnrKioVvOp-135" target="fR6h9TllRUfnrKioVvOp-58">
          <mxGeometry relative="1" as="geometry">
            <Array as="points">
              <mxPoint x="155" y="546" />
              <mxPoint x="235" y="546" />
            </Array>
          </mxGeometry>
        </mxCell>
        <mxCell id="fR6h9TllRUfnrKioVvOp-137" style="edgeStyle=orthogonalEdgeStyle;rounded=0;orthogonalLoop=1;jettySize=auto;html=1;exitX=0.5;exitY=1;exitDx=0;exitDy=0;entryX=0.25;entryY=0;entryDx=0;entryDy=0;endArrow=ERmandOne;endFill=0;" edge="1" parent="1" source="fR6h9TllRUfnrKioVvOp-135" target="fR6h9TllRUfnrKioVvOp-78">
          <mxGeometry relative="1" as="geometry" />
        </mxCell>
        <mxCell id="fR6h9TllRUfnrKioVvOp-135" value="Details" style="shape=rhombus;double=1;perimeter=rhombusPerimeter;whiteSpace=wrap;html=1;align=center;" vertex="1" parent="1">
          <mxGeometry x="115" y="566" width="80" height="60" as="geometry" />
        </mxCell>
        <mxCell id="fR6h9TllRUfnrKioVvOp-139" style="edgeStyle=orthogonalEdgeStyle;rounded=0;orthogonalLoop=1;jettySize=auto;html=1;exitX=0.5;exitY=0;exitDx=0;exitDy=0;entryX=0.75;entryY=1;entryDx=0;entryDy=0;endArrow=ERmandOne;endFill=0;" edge="1" parent="1" source="fR6h9TllRUfnrKioVvOp-138" target="fR6h9TllRUfnrKioVvOp-16">
          <mxGeometry relative="1" as="geometry" />
        </mxCell>
        <mxCell id="fR6h9TllRUfnrKioVvOp-140" style="edgeStyle=orthogonalEdgeStyle;rounded=0;orthogonalLoop=1;jettySize=auto;html=1;exitX=0.5;exitY=1;exitDx=0;exitDy=0;entryX=0.5;entryY=0;entryDx=0;entryDy=0;endArrow=ERzeroToMany;endFill=0;" edge="1" parent="1" source="fR6h9TllRUfnrKioVvOp-138" target="fR6h9TllRUfnrKioVvOp-104">
          <mxGeometry relative="1" as="geometry">
            <mxPoint x="695" y="406" as="targetPoint" />
          </mxGeometry>
        </mxCell>
        <mxCell id="fR6h9TllRUfnrKioVvOp-138" value="comment" style="shape=rhombus;double=1;perimeter=rhombusPerimeter;whiteSpace=wrap;html=1;align=center;" vertex="1" parent="1">
          <mxGeometry x="625" y="326" width="80" height="60" as="geometry" />
        </mxCell>
        <mxCell id="fR6h9TllRUfnrKioVvOp-142" style="edgeStyle=orthogonalEdgeStyle;rounded=0;orthogonalLoop=1;jettySize=auto;html=1;exitX=0.5;exitY=0;exitDx=0;exitDy=0;entryX=0.5;entryY=1;entryDx=0;entryDy=0;endArrow=ERmandOne;endFill=0;" edge="1" parent="1" source="fR6h9TllRUfnrKioVvOp-141" target="fR6h9TllRUfnrKioVvOp-58">
          <mxGeometry relative="1" as="geometry" />
        </mxCell>
        <mxCell id="fR6h9TllRUfnrKioVvOp-143" style="edgeStyle=orthogonalEdgeStyle;rounded=0;orthogonalLoop=1;jettySize=auto;html=1;exitX=0.5;exitY=1;exitDx=0;exitDy=0;entryX=0.5;entryY=0;entryDx=0;entryDy=0;endArrow=ERzeroToOne;endFill=0;" edge="1" parent="1" source="fR6h9TllRUfnrKioVvOp-141" target="fR6h9TllRUfnrKioVvOp-97">
          <mxGeometry relative="1" as="geometry" />
        </mxCell>
        <mxCell id="fR6h9TllRUfnrKioVvOp-141" value="Get" style="shape=rhombus;double=1;perimeter=rhombusPerimeter;whiteSpace=wrap;html=1;align=center;" vertex="1" parent="1">
          <mxGeometry x="285" y="746" width="80" height="60" as="geometry" />
        </mxCell>
        <mxCell id="YW7yf8sclBy1QRcgfcgO-3" style="edgeStyle=orthogonalEdgeStyle;rounded=0;orthogonalLoop=1;jettySize=auto;html=1;exitX=0.5;exitY=1;exitDx=0;exitDy=0;entryX=0.75;entryY=0;entryDx=0;entryDy=0;endArrow=ERzeroToMany;endFill=0;" edge="1" parent="1" source="YW7yf8sclBy1QRcgfcgO-2" target="fR6h9TllRUfnrKioVvOp-67">
          <mxGeometry relative="1" as="geometry" />
        </mxCell>
        <mxCell id="YW7yf8sclBy1QRcgfcgO-4" style="edgeStyle=orthogonalEdgeStyle;rounded=0;orthogonalLoop=1;jettySize=auto;html=1;exitX=0.5;exitY=0;exitDx=0;exitDy=0;entryX=0.5;entryY=1;entryDx=0;entryDy=0;endArrow=ERzeroToMany;endFill=0;" edge="1" parent="1" source="YW7yf8sclBy1QRcgfcgO-2" target="fR6h9TllRUfnrKioVvOp-16">
          <mxGeometry relative="1" as="geometry" />
        </mxCell>
        <mxCell id="YW7yf8sclBy1QRcgfcgO-2" value="Contain" style="shape=rhombus;double=1;perimeter=rhombusPerimeter;whiteSpace=wrap;html=1;align=center;" vertex="1" parent="1">
          <mxGeometry x="475" y="526" width="80" height="60" as="geometry" />
        </mxCell>
        <mxCell id="HZtSc_NJiaiMesVlkhWD-1" value="Country" style="ellipse;whiteSpace=wrap;html=1;align=center;" vertex="1" parent="1">
          <mxGeometry x="165" y="40" width="60" height="40" as="geometry" />
        </mxCell>
        <mxCell id="HZtSc_NJiaiMesVlkhWD-5" style="rounded=0;orthogonalLoop=1;jettySize=auto;html=1;exitX=0.5;exitY=1;exitDx=0;exitDy=0;entryX=0;entryY=0;entryDx=0;entryDy=0;endArrow=none;endFill=0;" edge="1" parent="1" source="HZtSc_NJiaiMesVlkhWD-3" target="fR6h9TllRUfnrKioVvOp-6">
          <mxGeometry relative="1" as="geometry" />
        </mxCell>
        <mxCell id="HZtSc_NJiaiMesVlkhWD-3" value="State" style="ellipse;whiteSpace=wrap;html=1;align=center;" vertex="1" parent="1">
          <mxGeometry x="230" y="40" width="60" height="40" as="geometry" />
        </mxCell>
        <mxCell id="HZtSc_NJiaiMesVlkhWD-8" style="rounded=0;orthogonalLoop=1;jettySize=auto;html=1;exitX=0.5;exitY=1;exitDx=0;exitDy=0;entryX=0.5;entryY=0;entryDx=0;entryDy=0;endArrow=none;endFill=0;" edge="1" parent="1" source="HZtSc_NJiaiMesVlkhWD-6" target="fR6h9TllRUfnrKioVvOp-6">
          <mxGeometry relative="1" as="geometry" />
        </mxCell>
        <mxCell id="HZtSc_NJiaiMesVlkhWD-6" value="City" style="ellipse;whiteSpace=wrap;html=1;align=center;" vertex="1" parent="1">
          <mxGeometry x="295" y="40" width="60" height="40" as="geometry" />
        </mxCell>
        <mxCell id="HZtSc_NJiaiMesVlkhWD-11" style="rounded=0;orthogonalLoop=1;jettySize=auto;html=1;exitX=0.5;exitY=1;exitDx=0;exitDy=0;entryX=1;entryY=0;entryDx=0;entryDy=0;endArrow=none;endFill=0;" edge="1" parent="1" source="HZtSc_NJiaiMesVlkhWD-9" target="fR6h9TllRUfnrKioVvOp-6">
          <mxGeometry relative="1" as="geometry" />
        </mxCell>
        <mxCell id="HZtSc_NJiaiMesVlkhWD-9" value="Region" style="ellipse;whiteSpace=wrap;html=1;align=center;" vertex="1" parent="1">
          <mxGeometry x="365" y="40" width="60" height="40" as="geometry" />
        </mxCell>
        <mxCell id="HZtSc_NJiaiMesVlkhWD-15" style="rounded=0;orthogonalLoop=1;jettySize=auto;html=1;exitX=0.5;exitY=1;exitDx=0;exitDy=0;entryX=1;entryY=0.5;entryDx=0;entryDy=0;endArrow=none;endFill=0;" edge="1" parent="1" source="HZtSc_NJiaiMesVlkhWD-12" target="fR6h9TllRUfnrKioVvOp-6">
          <mxGeometry relative="1" as="geometry" />
        </mxCell>
        <mxCell id="HZtSc_NJiaiMesVlkhWD-12" value="Street" style="ellipse;whiteSpace=wrap;html=1;align=center;" vertex="1" parent="1">
          <mxGeometry x="435" y="40" width="60" height="40" as="geometry" />
        </mxCell>
        <mxCell id="0xRxQ8C-j_CId4-q9qZo-1" value="Category" style="ellipse;shape=doubleEllipse;margin=3;whiteSpace=wrap;html=1;align=center;" vertex="1" parent="1">
          <mxGeometry x="690" y="156" width="75" height="44" as="geometry" />
        </mxCell>
      </root>
    </mxGraphModel>
  </diagram>
</mxfile>
